<?xml version="1.0" encoding="iso-8859-1"?>
<!-- Generator: Adobe Illustrator 19.0.0, SVG Export Plug-In . SVG Version: 6.00 Build 0)  -->
<svg xmlns="http://www.w3.org/2000/svg" xmlns:xlink="http://www.w3.org/1999/xlink" version="1.1" id="Layer_1" x="0px" y="0px" viewBox="0 0 511.988 511.988" style="enable-background:new 0 0 511.988 511.988;" xml:space="preserve" width="512" height="512">
<g id="strainer">
	<g id="fill_48_">
		<g>
			<path style="fill:#FF737D;" d="M20.426,239.957c-10.978-4.872-15.928-17.721-11.057-28.7c4.872-10.977,17.722-15.926,28.7-11.057     c8.991,3.992,41.054,14.146,76.093-22.654c8.279-8.697,22.048-9.038,30.746-0.754c8.699,8.282,9.601,22.621,0.754,30.746     C84.157,264.021,27.599,243.14,20.426,239.957z"/>
		</g>
		<g>
			<path style="fill:#FF737D;" d="M491.562,239.957c10.978-4.872,15.928-17.721,11.057-28.7     c-4.872-10.977-17.722-15.926-28.7-11.057c-8.991,3.992-41.054,14.146-76.093-22.654c-8.28-8.697-22.048-9.038-30.746-0.754     c-8.699,8.282-9.601,22.621-0.754,30.746C427.831,264.021,484.389,243.14,491.562,239.957z"/>
		</g>
		<path style="fill:#E55555;" d="M144.906,176.792c-8.698-8.284-22.466-7.943-30.746,0.754    c-32.201,33.82-61.885,27.983-73.462,23.718c-1.409,13.036-1.898,28.056-0.288,43.982c23.19,3.38,63.055,1.043,105.25-37.708    C154.507,199.413,153.605,185.073,144.906,176.792z"/>
		<path style="fill:#E55555;" d="M367.081,176.792c8.698-8.284,22.466-7.943,30.746,0.754c32.201,33.82,61.885,27.983,73.462,23.718    c1.409,13.036,1.898,28.056,0.289,43.982c-23.19,3.38-63.055,1.043-105.25-37.708    C357.481,199.413,358.382,185.073,367.081,176.792z"/>
		<path style="fill:#EAEAEA;" d="M449.835,161.361H62.153c0,0-13.559,141.326,149.154,189.315h89.373    C463.394,302.687,449.835,161.361,449.835,161.361z"/>
		<path style="fill:#D8D7DA;" d="M62.153,161.361c0,0-13.559,141.326,149.154,189.315h15.822    c-4.199-23.761-1.008-45.223,4.257-62.415c7.196-23.499,27.443-40.779,51.837-43.765c83.359-10.203,95.043-59.176,95.043-59.176    v-23.959H62.153z"/>
		<path style="fill:#FF737D;" d="M463.926,185.319H59.965c-16.498,0-29.996-13.498-29.996-29.996l0,0    c0-16.498,13.498-29.996,29.996-29.996h403.961c16.498,0,29.996,13.498,29.996,29.996l0,0    C493.922,171.821,480.424,185.319,463.926,185.319z"/>
		<path style="fill:#E55555;" d="M149.29,155.323c0-16.498,13.498-29.996,29.996-29.996H59.965    c-16.498,0-29.996,13.498-29.996,29.996c0,16.498,13.498,29.996,29.996,29.996h119.32    C162.788,185.319,149.29,171.821,149.29,155.323z"/>
		<path style="fill:#D8D7DA;" d="M334.503,386.661H177.484c-13.167,0-23.94-10.773-23.94-23.94v0c0-13.167,10.773-23.94,23.94-23.94    h157.019c13.167,0,23.94,10.773,23.94,23.94v0C358.443,375.888,347.67,386.661,334.503,386.661z"/>
		<path style="fill:#C6C5CA;" d="M235.242,362.721L235.242,362.721c0-13.167,10.773-23.94,23.94-23.94h-81.698    c-13.167,0-23.94,10.773-23.94,23.94l0,0c0,13.167,10.773,23.94,23.94,23.94h81.698    C246.015,386.661,235.242,375.888,235.242,362.721z"/>
		<circle style="fill:#C6C5CA;" cx="133.722" cy="218.643" r="15"/>
		<circle style="fill:#C6C5CA;" cx="194.858" cy="218.643" r="15"/>
		<circle style="fill:#C6C5CA;" cx="255.994" cy="218.643" r="15"/>
		<circle style="fill:#C6C5CA;" cx="317.13" cy="218.643" r="15"/>
		<circle style="fill:#D8D7DA;" cx="378.266" cy="218.643" r="15"/>
		<circle style="fill:#C6C5CA;" cx="194.858" cy="304.044" r="15"/>
		<circle style="fill:#D8D7DA;" cx="255.994" cy="304.044" r="15"/>
		<circle style="fill:#D8D7DA;" cx="317.13" cy="304.044" r="15"/>
		<circle style="fill:#C6C5CA;" cx="164.29" cy="261.344" r="15"/>
		<circle style="fill:#C6C5CA;" cx="225.426" cy="261.344" r="15"/>
		<circle style="fill:#D8D7DA;" cx="286.562" cy="261.344" r="15"/>
		<circle style="fill:#D8D7DA;" cx="347.698" cy="261.344" r="15"/>
	</g>
	<g id="stroke_47_">
		<path d="M156.221,218.644c0-12.406-10.094-22.5-22.5-22.5c-12.406,0-22.5,10.094-22.5,22.5c0,12.406,10.094,22.5,22.5,22.5    C146.128,241.144,156.221,231.05,156.221,218.644z M133.721,226.144c-4.136,0-7.5-3.364-7.5-7.5c0-4.136,3.364-7.5,7.5-7.5    c4.136,0,7.5,3.364,7.5,7.5C141.221,222.78,137.857,226.144,133.721,226.144z"/>
		<path d="M194.858,241.144c12.406,0,22.5-10.094,22.5-22.5c0-12.406-10.094-22.5-22.5-22.5c-12.406,0-22.5,10.094-22.5,22.5    C172.358,231.05,182.452,241.144,194.858,241.144z M194.858,211.144c4.136,0,7.5,3.364,7.5,7.5c0,4.136-3.364,7.5-7.5,7.5    c-4.136,0-7.5-3.364-7.5-7.5C187.358,214.508,190.722,211.144,194.858,211.144z"/>
		<path d="M255.994,241.144c12.406,0,22.5-10.094,22.5-22.5c0-12.406-10.094-22.5-22.5-22.5c-12.406,0-22.5,10.094-22.5,22.5    C233.494,231.05,243.588,241.144,255.994,241.144z M255.994,211.144c4.136,0,7.5,3.364,7.5,7.5c0,4.136-3.364,7.5-7.5,7.5    c-4.136,0-7.5-3.364-7.5-7.5C248.494,214.508,251.858,211.144,255.994,211.144z"/>
		<path d="M317.13,241.144c12.406,0,22.5-10.094,22.5-22.5c0-12.406-10.094-22.5-22.5-22.5c-12.406,0-22.5,10.094-22.5,22.5    C294.63,231.05,304.723,241.144,317.13,241.144z M317.13,211.144c4.136,0,7.5,3.364,7.5,7.5c0,4.136-3.364,7.5-7.5,7.5    c-4.136,0-7.5-3.364-7.5-7.5C309.63,214.508,312.994,211.144,317.13,211.144z"/>
		<path d="M400.17,213.484c-2.398-10.209-11.406-17.34-21.903-17.34c-12.406,0-22.5,10.094-22.5,22.5    c0,9.5,6.074,17.85,14.959,21.202c5.357,2.021,8.487-1.481,9.579-4.554c1.388-3.902-0.651-8.191-4.554-9.579    c-2.981-1.061-4.984-3.901-4.984-7.069c0-4.136,3.364-7.5,7.5-7.5c3.5,0,6.503,2.373,7.302,5.771    c0.947,4.033,4.986,6.534,9.017,5.585C398.617,221.553,401.118,217.516,400.17,213.484z"/>
		<path d="M194.858,281.543c-12.406,0-22.5,10.094-22.5,22.5c0,12.406,10.094,22.5,22.5,22.5c12.406,0,22.5-10.094,22.5-22.5    C217.358,291.637,207.264,281.543,194.858,281.543z M194.858,311.543c-4.136,0-7.5-3.364-7.5-7.5c0-4.136,3.364-7.5,7.5-7.5    c4.136,0,7.5,3.364,7.5,7.5C202.358,308.179,198.994,311.543,194.858,311.543z"/>
		<path d="M255.994,281.543c-12.406,0-22.5,10.094-22.5,22.5c0,12.406,10.094,22.5,22.5,22.5c12.406,0,22.5-10.094,22.5-22.5    C278.494,291.637,268.4,281.543,255.994,281.543z M255.994,311.543c-4.136,0-7.5-3.364-7.5-7.5c0-4.136,3.364-7.5,7.5-7.5    c4.136,0,7.5,3.364,7.5,7.5C263.494,308.179,260.13,311.543,255.994,311.543z"/>
		<path d="M317.13,281.543c-12.406,0-22.5,10.094-22.5,22.5c0,12.406,10.094,22.5,22.5,22.5c12.406,0,22.5-10.094,22.5-22.5    C339.63,291.637,329.536,281.543,317.13,281.543z M317.13,311.543c-4.136,0-7.5-3.364-7.5-7.5c0-4.136,3.364-7.5,7.5-7.5    c4.136,0,7.5,3.364,7.5,7.5C324.63,308.179,321.265,311.543,317.13,311.543z"/>
		<path d="M186.79,261.344c0-12.406-10.094-22.5-22.5-22.5c-12.406,0-22.5,10.094-22.5,22.5c0,12.406,10.094,22.5,22.5,22.5    C176.696,283.844,186.79,273.75,186.79,261.344z M164.29,268.844c-4.136,0-7.5-3.364-7.5-7.5c0-4.136,3.364-7.5,7.5-7.5    c4.136,0,7.5,3.364,7.5,7.5C171.79,265.48,168.425,268.844,164.29,268.844z"/>
		<path d="M247.925,261.344c0-12.406-10.094-22.5-22.5-22.5c-12.406,0-22.5,10.094-22.5,22.5c0,12.406,10.094,22.5,22.5,22.5    C237.832,283.844,247.925,273.75,247.925,261.344z M225.425,268.844c-4.136,0-7.5-3.364-7.5-7.5c0-4.136,3.364-7.5,7.5-7.5    c4.136,0,7.5,3.364,7.5,7.5C232.925,265.48,229.561,268.844,225.425,268.844z"/>
		<path d="M309.062,261.344c0-12.406-10.094-22.5-22.5-22.5c-12.406,0-22.5,10.094-22.5,22.5c0,12.406,10.094,22.5,22.5,22.5    C298.968,283.844,309.062,273.75,309.062,261.344z M286.562,268.844c-4.136,0-7.5-3.364-7.5-7.5c0-4.136,3.364-7.5,7.5-7.5    c4.136,0,7.5,3.364,7.5,7.5C294.062,265.48,290.698,268.844,286.562,268.844z"/>
		<path d="M347.698,238.844c-12.406,0-22.5,10.094-22.5,22.5c0,12.406,10.094,22.5,22.5,22.5c12.406,0,22.5-10.094,22.5-22.5    C370.198,248.938,360.104,238.844,347.698,238.844z M347.698,268.844c-4.136,0-7.5-3.364-7.5-7.5c0-4.136,3.364-7.5,7.5-7.5    c4.136,0,7.5,3.364,7.5,7.5C355.198,265.48,351.834,268.844,347.698,268.844z"/>
		<path d="M509.475,208.216c-6.542-14.74-23.856-21.407-38.599-14.871c-2.414,1.072-7.949,3.141-15.488,3.611    c0.22-1.412,0.418-2.792,0.597-4.137h7.94c20.676,0,37.496-16.82,37.496-37.496s-16.82-37.496-37.496-37.496h-47.58    c-4.143,0-7.5,3.357-7.5,7.5s3.357,7.5,7.5,7.5h47.58c12.404,0,22.496,10.092,22.496,22.496s-10.092,22.496-22.496,22.496H59.966    c-12.404,0-22.496-10.092-22.496-22.496s10.092-22.496,22.496-22.496h324.88c4.142,0,7.5-3.357,7.5-7.5s-3.358-7.5-7.5-7.5H59.966    c-20.676,0-37.496,16.82-37.496,37.496c0,19.326,14.697,35.279,33.501,37.281c0.187,1.414,0.395,2.865,0.625,4.351    c-7.535-0.471-13.071-2.538-15.486-3.61c-14.74-6.539-32.055,0.133-38.597,14.871c-6.54,14.74,0.131,32.055,14.872,38.597    c2.06,0.914,33.12,11.797,56.59,5.603c21.666,45.535,50.5,67.017,84.686,85.138c-7.654,5.74-12.616,14.885-12.616,25.167    c0,17.336,14.104,31.439,31.439,31.439h157.02c17.336,0,31.439-14.104,31.439-31.439c0-10.283-4.962-19.428-12.617-25.168    c33.853-17.946,68.7-49.893,84.681-85.138c34.577,3.603,54.538-4.688,56.597-5.602    C509.344,240.271,516.015,222.956,509.475,208.216z M23.467,233.102c-7.181-3.187-10.43-11.621-7.244-18.802    c3.186-7.179,11.621-10.434,18.802-7.244c4.503,1.998,13.148,4.974,24.523,4.99c1.932,8.175,4.564,16.968,8.135,26.083    C41.962,241.108,24.289,233.466,23.467,233.102z M331.941,331.28h-98.044c-4.143,0-7.5,3.358-7.5,7.5c0,4.143,3.357,7.5,7.5,7.5    h100.607c9.064,0,16.439,7.375,16.439,16.441c0,9.064-7.375,16.439-16.439,16.439h-157.02c-9.064,0-16.439-7.375-16.439-16.439    c0-9.066,7.375-16.441,16.439-16.441h26.59c4.143,0,7.5-3.357,7.5-7.5c0-4.142-3.357-7.5-7.5-7.5h-24.027    C99.153,295.294,76.821,232.53,71.137,192.82h369.711C435.196,232.168,412.983,295.227,331.941,331.28z M488.521,233.102    c-0.823,0.364-18.498,8.009-44.22,5.027c3.574-9.125,6.208-17.923,8.137-26.082c11.377-0.015,20.021-2.992,24.522-4.991    c7.181-3.184,15.618,0.066,18.804,7.244C498.95,221.481,495.701,229.915,488.521,233.102z"/>
	</g>
</g>















</svg>
